<svg width="14" height="15" viewBox="0 0 14 15" fill="none" xmlns="http://www.w3.org/2000/svg">
<path d="M0.30044 1.82641C-0.00283908 1.52298 -0.00283916 1.03101 0.300439 0.727577C0.603718 0.424141 1.09543 0.424141 1.39871 0.727577L13.7725 13.1078C14.0758 13.4112 14.0758 13.9032 13.7725 14.2066C13.4693 14.5101 12.9776 14.5101 12.6743 14.2066L0.30044 1.82641Z" fill="black"/>
<path d="M12.6013 0.793354C12.9046 0.489919 13.3963 0.489919 13.6996 0.793354C14.0028 1.09679 14.0028 1.58876 13.6996 1.89219L1.32573 14.2724C1.02245 14.5759 0.530738 14.5759 0.227459 14.2724C-0.0758196 13.969 -0.0758197 13.477 0.227459 13.1736L12.6013 0.793354Z" fill="black"/>
</svg>
