<svg width="28" height="28" viewBox="0 0 28 28" fill="none" xmlns="http://www.w3.org/2000/svg">
<g clip-path="url(#clip0_594_1238)">
<path d="M10.5001 8.16675H7.00008C6.38124 8.16675 5.78775 8.41258 5.35017 8.85017C4.91258 9.28775 4.66675 9.88124 4.66675 10.5001V21.0001C4.66675 21.6189 4.91258 22.2124 5.35017 22.65C5.78775 23.0876 6.38124 23.3334 7.00008 23.3334H17.5001C18.1189 23.3334 18.7124 23.0876 19.15 22.65C19.5876 22.2124 19.8334 21.6189 19.8334 21.0001V17.5001" stroke="white" stroke-width="2" stroke-linecap="round" stroke-linejoin="round"/>
<path d="M10.5 17.4999H14L23.9167 7.58327C24.3808 7.11914 24.6415 6.48965 24.6415 5.83327C24.6415 5.17689 24.3808 4.5474 23.9167 4.08327C23.4525 3.61914 22.823 3.3584 22.1667 3.3584C21.5103 3.3584 20.8808 3.61914 20.4167 4.08327L10.5 13.9999V17.4999Z" stroke="white" stroke-width="2" stroke-linecap="round" stroke-linejoin="round"/>
<path d="M18.6667 5.83325L22.1667 9.33325" stroke="white" stroke-width="2" stroke-linecap="round" stroke-linejoin="round"/>
</g>
<defs>
<clipPath id="clip0_594_1238">
<rect width="28" height="28" fill="white"/>
</clipPath>
</defs>
</svg>
