<svg width="25" height="25" viewBox="0 0 25 25" fill="none" xmlns="http://www.w3.org/2000/svg">
<path fill-rule="evenodd" clip-rule="evenodd" d="M25 14.1815H23.6413C23.3636 16.0371 22.6334 17.7448 21.5665 19.1885L22.5273 20.1493C23.8269 18.4481 24.7035 16.4065 25 14.1815ZM20.1493 22.5272L19.1885 21.5665C17.7448 22.6334 16.0371 23.3636 14.1815 23.6413V25C16.4065 24.7035 18.4481 23.8269 20.1493 22.5272ZM10.8185 25V23.6413C8.9629 23.3636 7.25525 22.6334 5.81148 21.5665L4.85073 22.5273C6.55186 23.8269 8.59349 24.7035 10.8185 25ZM2.47275 20.1493L3.4335 19.1885C2.36663 17.7448 1.63639 16.0371 1.3587 14.1815H0C0.296455 16.4065 1.17307 18.4481 2.47275 20.1493ZM25 10.8185C24.7035 8.59349 23.8269 6.55187 22.5273 4.85073L21.5665 5.81148C22.6334 7.25525 23.3636 8.9629 23.6413 10.8185H25ZM20.1493 2.47275C18.4481 1.17307 16.4065 0.296455 14.1815 0V1.3587C16.0371 1.63639 17.7448 2.36663 19.1885 3.4335L20.1493 2.47275ZM10.8185 1.10479e-07C8.59349 0.296455 6.55186 1.17307 4.85073 2.47275L5.81148 3.4335C7.25525 2.36663 8.9629 1.63639 10.8185 1.3587V1.10479e-07ZM2.47275 4.85073C1.17307 6.55186 0.296455 8.59349 1.10479e-07 10.8185H1.3587C1.63639 8.9629 2.36663 7.25525 3.4335 5.81148L2.47275 4.85073Z" fill="#191919"/>
</svg>
