<svg width="20" height="20" viewBox="0 0 20 20" fill="none" xmlns="http://www.w3.org/2000/svg">
<g clip-path="url(#clip0_27_41)">
<path d="M9.9975 19.995C15.519 19.995 19.995 15.519 19.995 9.9975C19.995 4.47603 15.519 0 9.9975 0C4.47603 0 0 4.47603 0 9.9975C0 15.519 4.47603 19.995 9.9975 19.995Z" fill="#0966BB"/>
<mask id="mask0_27_41" style="mask-type:alpha" maskUnits="userSpaceOnUse" x="0" y="0" width="19" height="19">
<path d="M9.99751 18.9953C14.9668 18.9953 18.9953 14.9668 18.9953 9.99751C18.9953 5.02819 14.9668 0.999756 9.99751 0.999756C5.02819 0.999756 0.999756 5.02819 0.999756 9.99751C0.999756 14.9668 5.02819 18.9953 9.99751 18.9953Z" fill="#0068B1"/>
</mask>
<g mask="url(#mask0_27_41)">
<path d="M17.0861 2.77562L9.845 -4.46552L-4.38418 9.76367L2.85695 17.0048L17.0861 2.77562Z" fill="white"/>
</g>
</g>
<defs>
<clipPath id="clip0_27_41">
<rect width="19.995" height="19.995" fill="white"/>
</clipPath>
</defs>
</svg>
