<svg width="20" height="20" viewBox="0 0 21 21" fill="none" xmlns="http://www.w3.org/2000/svg">
<g clip-path="url(#clip0_27_20)">
<path d="M19.995 9.9975C19.995 15.5189 15.5189 19.995 9.9975 19.995C4.47603 19.995 0 15.5189 0 9.9975C0 4.47603 4.47603 0 9.9975 0C15.5189 0 19.995 4.47603 19.995 9.9975Z" fill="#621785"/>
<path d="M14.9962 9.99753C14.9962 12.7583 12.7582 14.9963 9.9975 14.9963C7.23676 14.9963 4.99875 12.7583 4.99875 9.99753C4.99875 7.23679 7.23676 4.99878 9.9975 4.99878C12.7582 4.99878 14.9962 7.23679 14.9962 9.99753Z" fill="white"/>
<path d="M19.3285 9.9975C19.3285 15.1509 15.1509 19.3285 9.9975 19.3285C4.84414 19.3285 0.666504 15.1509 0.666504 9.9975C0.666504 4.84414 4.84414 0.666504 9.9975 0.666504C15.1509 0.666504 19.3285 4.84414 19.3285 9.9975ZM14.3298 9.9975C14.3298 12.3901 12.3901 14.3298 9.9975 14.3298C7.60486 14.3298 5.66525 12.3901 5.66525 9.9975C5.66525 7.60486 7.60486 5.66525 9.9975 5.66525C12.3901 5.66525 14.3298 7.60486 14.3298 9.9975ZM9.9975 15.6628C13.1263 15.6628 15.6628 13.1263 15.6628 9.9975C15.6628 6.86867 13.1263 4.33225 9.9975 4.33225C6.86867 4.33225 4.33225 6.86867 4.33225 9.9975C4.33225 13.1263 6.86867 15.6628 9.9975 15.6628Z" stroke="#621785" stroke-width="1.333"/>
</g>
<defs>
<clipPath id="clip0_27_20">
<rect width="19.995" height="19.995" fill="white"/>
</clipPath>
</defs>
</svg>
