<svg width="69" height="69" viewBox="0 0 69 69" fill="none" xmlns="http://www.w3.org/2000/svg">
<path fill-rule="evenodd" clip-rule="evenodd" d="M39.3509 34.6781C39.3509 37.6003 36.9832 39.9671 34.0598 39.9671C31.1398 39.9671 28.7687 37.6003 28.7687 34.6781C28.7687 31.7593 31.1398 29.3857 34.0598 29.3857C36.9832 29.3857 39.3509 31.7593 39.3509 34.6781ZM23.9791 24.3483C24.6344 23.2088 25.3049 22.0996 25.9872 21.0192C25.2694 20.9568 24.5635 20.9281 23.8778 20.9281C19.2706 20.9281 15.9217 22.3579 14.7074 24.8564C14.2075 25.8777 14.0724 27.0392 14.2598 28.2867C17.1275 26.8501 20.3988 25.5182 23.9774 24.35L23.9791 24.3483ZM28.029 21.2657C27.5443 22.0068 27.0714 22.7648 26.6019 23.5363C28.0391 23.1142 29.5118 22.7243 31.0283 22.3647C32.2359 22.6787 33.4653 23.0636 34.6881 23.5126C33.8234 23.6899 32.957 23.8756 32.0822 24.0748C25.2002 25.6684 19.3466 27.8191 14.7547 30.1488C15.4167 31.9315 16.6327 33.8205 18.2911 35.6792C19.3821 33.1351 20.6234 30.532 22.0133 27.9035L22.2869 27.3937C23.1127 27.1067 23.9622 26.8316 24.8337 26.5648C24.4284 27.2857 24.0247 28.0183 23.6312 28.7611C20.1438 35.3584 17.7135 41.5573 16.2273 46.9746C17.2626 47.0405 18.3502 47.0759 19.4817 47.0759C22.4575 47.0759 25.6544 46.8345 28.946 46.3905C30.0437 46.9139 31.1499 47.3882 32.2527 47.812C27.7976 48.5818 23.4556 48.9869 19.48 48.9869C9.27101 48.9869 2.83483 46.4631 1.81309 42.0655C0.889291 38.0595 4.93913 33.4339 12.0947 29.4279C12.2113 30.039 12.3886 30.662 12.6217 31.2933C6.3054 34.9009 3.02061 38.7888 3.67588 41.6367C4.29737 44.3073 8.25601 46.1728 14.3713 46.821C15.1499 43.9241 16.1817 40.8584 17.4585 37.6796C12.9729 32.9731 11.0966 27.8934 12.9881 24.014C14.5588 20.793 18.4262 19.0171 23.8761 19.0171C27.5459 19.0171 31.6684 19.8392 35.8027 21.3602C40.5821 20.4858 45.2602 20.0215 49.511 20.0215C50.8249 20.0215 52.0713 20.0604 53.2535 20.1414C55.53 10.7299 54.7582 4.02288 51.5241 2.30771C50.9313 1.99371 50.2473 1.83671 49.4975 1.83671C44.3533 1.83671 36.5053 8.81386 29.4527 19.115C28.767 18.9816 28.0914 18.8736 27.426 18.7875C35.0258 7.38737 43.4869 0 49.5009 0H49.5499C50.5885 0.00675262 51.541 0.236342 52.3888 0.682015C56.6717 2.94414 57.4418 10.4649 55.1061 20.3051C62.054 21.0817 66.364 23.4063 67.1814 26.9396C67.9852 30.3936 65.197 34.3692 59.3299 38.1405C58.4484 38.706 57.5127 39.2564 56.5281 39.7932C56.9335 41.6839 56.7663 43.4464 56.0114 44.9944C54.4357 48.212 50.5699 49.9914 45.1217 49.9914C44.3094 49.9914 43.4717 49.9357 42.6172 49.858C43.0039 49.257 43.3839 48.651 43.7656 48.0331C44.2233 48.0567 44.6792 48.0821 45.1217 48.0821C49.7356 48.0821 53.0778 46.6488 54.2955 44.152C55.5013 41.6975 54.6687 38.3684 51.9615 34.7895C51.5748 34.2797 51.1559 33.7716 50.7067 33.2685C49.6056 35.8699 48.3626 38.5119 46.993 41.1032L46.4171 42.1701C49.0854 41.2214 51.5832 40.173 53.8496 39.042C54.1013 39.6784 54.282 40.3047 54.3816 40.904C49.4958 43.2995 43.6322 45.3388 37.3463 46.7889L36.9933 46.8717C38.3444 47.2447 39.6786 47.5368 40.9773 47.736L42.0126 46.0968C42.9127 45.825 43.8027 45.5448 44.6776 45.2476C36.3668 59.4248 26.3418 69 19.4986 69C18.4448 69 17.4754 68.7721 16.6107 68.3214C12.4629 66.1251 11.6067 58.9909 13.6873 49.593C14.2852 49.6487 14.9016 49.6909 15.5366 49.7229C13.5134 58.6837 14.3342 65.0345 17.4686 66.6957C18.0614 67.0097 18.742 67.17 19.4952 67.17C24.707 67.17 32.7037 60.0021 39.8289 49.4731C36.3026 48.8316 32.5821 47.6026 28.9646 45.8402C25.1866 43.995 21.9018 41.792 19.2689 39.4319C19.5206 38.7955 19.7925 38.1489 20.061 37.5041C22.6568 39.9485 25.9838 42.263 29.8022 44.125C30.9844 44.7041 32.1801 45.2189 33.3708 45.6764C34.5462 45.4536 35.7284 45.2054 36.9106 44.932C39.2885 44.3799 41.6022 43.7503 43.8213 43.0446C44.3482 42.1279 44.8599 41.1961 45.3598 40.2473C46.8562 37.423 48.1751 34.5785 49.3151 31.8319C46.6147 29.2102 43.1306 26.8113 39.1922 24.8851C35.4531 23.0602 31.6093 21.8228 28.0273 21.2674L28.029 21.2657ZM55.9573 37.9278C56.773 37.4737 57.5583 37.0111 58.2947 36.5334C63.3561 33.282 65.913 29.9445 65.3152 27.3701C64.5417 24.014 58.4855 21.9308 49.511 21.9308C46.2651 21.9308 42.7506 22.2094 39.1314 22.7395L40.0265 23.1666C43.877 25.0438 47.3223 27.3684 50.0818 29.9243C51.1103 27.2857 51.9666 24.7686 52.6286 22.466C53.2653 22.5217 53.8834 22.5808 54.4813 22.6584C53.7145 25.3527 52.7114 28.2935 51.4988 31.3187C52.2233 32.0817 52.8836 32.8566 53.4764 33.6399C54.5792 35.0985 55.4051 36.5368 55.9523 37.9261L55.9573 37.9278Z" fill="#0966BB"/>
</svg>
