<svg width="35" height="35" viewBox="0 0 35 35" fill="none" xmlns="http://www.w3.org/2000/svg">
<path fill-rule="evenodd" clip-rule="evenodd" d="M7.65609 13.854V17.9344C7.65609 18.7103 7.30317 19.4438 6.69796 19.928C6.25463 20.2838 5.77192 20.6688 5.36505 20.994C4.509 21.6794 4.01025 22.7163 4.01025 23.8144C4.01025 24.9432 4.45942 26.0267 5.25713 26.8259C6.0563 27.6236 7.13984 28.0728 8.26859 28.0728H26.7311C27.8598 28.0728 28.9434 27.6236 29.7425 26.8259C30.5403 26.0267 30.9894 24.9432 30.9894 23.8144C30.9894 22.7163 30.4907 21.6794 29.6346 20.994C29.2278 20.6688 28.745 20.2838 28.3017 19.928C27.6965 19.4438 27.3436 18.7103 27.3436 17.9344C27.3436 16.864 27.3436 15.4042 27.3436 13.854C27.3436 8.41734 22.9365 4.01025 17.4998 4.01025C12.0632 4.01025 7.65609 8.41734 7.65609 13.854ZM9.84359 13.854C9.84359 9.62484 13.2721 6.19775 17.4998 6.19775C21.7275 6.19775 25.1561 9.6263 25.1561 13.854C25.1561 15.4042 25.1561 16.864 25.1561 17.9344C25.1561 19.3753 25.8109 20.7373 26.9353 21.6357C27.3786 21.9915 27.8613 22.378 28.2682 22.7017C28.605 22.973 28.8019 23.3813 28.8019 23.8144C28.8019 24.3642 28.5832 24.8907 28.1953 25.2786C27.8073 25.6665 27.2809 25.8853 26.7311 25.8853H8.26859C7.7188 25.8853 7.19234 25.6665 6.80442 25.2786C6.4165 24.8907 6.19775 24.3642 6.19775 23.8144C6.19775 23.3813 6.39463 22.973 6.7315 22.7017C7.13838 22.378 7.62109 21.9915 8.06442 21.6357C9.1888 20.7373 9.84359 19.3753 9.84359 17.9344V13.854Z" fill="black"/>
<path fill-rule="evenodd" clip-rule="evenodd" d="M19.1389 29.0923C18.6561 29.3723 18.0961 29.5313 17.4997 29.5313C16.9032 29.5313 16.3432 29.3723 15.8605 29.0923C15.3384 28.7904 14.6676 28.9683 14.3657 29.4904C14.0639 30.014 14.2418 30.6833 14.7639 30.9852C15.5689 31.4519 16.5036 31.7188 17.4997 31.7188C18.4957 31.7188 19.4305 31.4519 20.2355 30.9852C20.7576 30.6833 20.9355 30.014 20.6336 29.4904C20.3318 28.9683 19.6609 28.7904 19.1389 29.0923Z" fill="black"/>
</svg>
