<svg width="20" height="20" viewBox="0 0 20 20" fill="none" xmlns="http://www.w3.org/2000/svg">
<g clip-path="url(#clip0_27_48)">
<path d="M9.99749 -5.72205e-06C4.47603 -5.72205e-06 -5.72205e-06 4.47603 -5.72205e-06 9.99749C-5.72205e-06 15.519 4.47603 19.995 9.99749 19.995C15.519 19.995 19.995 15.519 19.995 9.99749C19.995 4.47603 15.519 -5.72205e-06 9.99749 -5.72205e-06Z" fill="#05315A"/>
<mask id="mask0_27_48" style="mask-type:alpha" maskUnits="userSpaceOnUse" x="0" y="0" width="19" height="19">
<path d="M9.9975 0.999739C5.02818 0.999739 0.999754 5.02817 0.999754 9.99749C0.999754 14.9668 5.02818 18.9952 9.9975 18.9952C14.9668 18.9952 18.9953 14.9668 18.9953 9.99749C18.9953 5.02817 14.9668 0.999739 9.9975 0.999739Z" fill="#0068B1"/>
</mask>
<g mask="url(#mask0_27_48)">
<path d="M2.90889 17.2194L10.15 24.4606L24.3792 10.2314L17.1381 2.99026L2.90889 17.2194Z" fill="white"/>
</g>
</g>
<defs>
<clipPath id="clip0_27_48">
<rect width="19.995" height="19.995" fill="white"/>
</clipPath>
</defs>
</svg>
