<svg width="20" height="20" viewBox="0 0 20 20" fill="none" xmlns="http://www.w3.org/2000/svg">
<g clip-path="url(#clip0_27_24)">
<path d="M9.9975 19.995C15.519 19.995 19.995 15.519 19.995 9.9975C19.995 4.47603 15.519 0 9.9975 0C4.47603 0 0 4.47603 0 9.9975C0 15.519 4.47603 19.995 9.9975 19.995Z" fill="#15720D"/>
<path d="M6.14146 12.9967C7.7979 12.9967 9.14071 11.6539 9.14071 9.99748C9.14071 8.34104 7.7979 6.99823 6.14146 6.99823C4.48502 6.99823 3.14221 8.34104 3.14221 9.99748C3.14221 11.6539 4.48502 12.9967 6.14146 12.9967Z" fill="white" stroke="#15720D" stroke-width="1.333"/>
<path d="M13.8536 12.9967C15.51 12.9967 16.8528 11.6539 16.8528 9.99748C16.8528 8.34104 15.51 6.99823 13.8536 6.99823C12.1971 6.99823 10.8543 8.34104 10.8543 9.99748C10.8543 11.6539 12.1971 12.9967 13.8536 12.9967Z" fill="white" stroke="#15720D" stroke-width="1.333"/>
</g>
<defs>
<clipPath id="clip0_27_24">
<rect width="19.995" height="19.995" fill="white"/>
</clipPath>
</defs>
</svg>
