<svg width="35" height="35" viewBox="0 0 35 35" fill="none" xmlns="http://www.w3.org/2000/svg">
<path fill-rule="evenodd" clip-rule="evenodd" d="M17.5 3.28125C9.65271 3.28125 3.28125 9.65271 3.28125 17.5C3.28125 25.3473 9.65271 31.7188 17.5 31.7188C25.3473 31.7188 31.7188 25.3473 31.7188 17.5C31.7188 9.65271 25.3473 3.28125 17.5 3.28125ZM25.1562 26.7779V24.2273C25.1562 23.6717 24.8296 23.17 24.3235 22.944C24.3221 22.944 24.3221 22.944 24.3206 22.944C22.1944 21.999 19.8931 21.5104 17.5671 21.5104C17.5219 21.5104 17.4781 21.5104 17.4329 21.5104C15.1069 21.5104 12.8056 21.999 10.6794 22.944C10.6779 22.944 10.6779 22.944 10.6765 22.944C10.1704 23.17 9.84375 23.6717 9.84375 24.2273V26.7779C11.9233 28.4973 14.5921 29.5312 17.5 29.5312C20.4079 29.5312 23.0767 28.4973 25.1562 26.7779ZM27.3438 24.4154C28.7219 22.4583 29.5312 20.0725 29.5312 17.5C29.5312 10.8602 24.1398 5.46875 17.5 5.46875C10.8602 5.46875 5.46875 10.8602 5.46875 17.5C5.46875 20.0725 6.27813 22.4583 7.65625 24.4154V24.2273C7.65625 22.8083 8.49188 21.5221 9.78833 20.946C9.78979 20.946 9.78979 20.9446 9.78979 20.9446C12.196 19.8756 14.8006 19.3229 17.4329 19.3229C17.4781 19.3229 17.5219 19.3229 17.5671 19.3229C20.1994 19.3229 22.804 19.8756 25.2102 20.9446C25.2102 20.9446 25.2102 20.946 25.2117 20.946C26.5081 21.5221 27.3438 22.8083 27.3438 24.2273V24.4154Z" fill="black"/>
<path fill-rule="evenodd" clip-rule="evenodd" d="M17.5 6.92725C14.4813 6.92725 12.0312 9.37725 12.0312 12.396C12.0312 15.4147 14.4813 17.8647 17.5 17.8647C20.5188 17.8647 22.9688 15.4147 22.9688 12.396C22.9688 9.37725 20.5188 6.92725 17.5 6.92725ZM17.5 9.11475C19.3113 9.11475 20.7812 10.5847 20.7812 12.396C20.7812 14.2072 19.3113 15.6772 17.5 15.6772C15.6888 15.6772 14.2188 14.2072 14.2188 12.396C14.2188 10.5847 15.6888 9.11475 17.5 9.11475Z" fill="black"/>
</svg>
